<svg id="Layer_1" data-name="Layer 1" xmlns="http://www.w3.org/2000/svg" viewBox="0 0 1872.87 550.7"><defs><style>.cls-1{fill:#fff;}.cls-2{fill:#ff6f00;}.cls-3{fill:#e65100;}.cls-4{fill:#ffd600;}.cls-5{fill:#ffab00;}</style></defs><title>Honor_Branding_Logo_Full_Light</title><polygon class="cls-1" points="1096.33 259.7 1096.33 417.98 1042.2 417.98 1042.2 133.55 1223.72 306.5 1223.72 148.23 1277.85 148.23 1277.85 432.66 1096.33 259.7"/><path class="cls-1" d="M1457.17,426c-78.07,0-141.57-63.51-141.57-141.57s63.5-141.56,141.57-141.56,141.56,63.51,141.56,141.56S1535.22,426,1457.17,426Zm0-233.24a91.68,91.68,0,1,0,91.67,91.67A91.78,91.78,0,0,0,1457.17,192.74Z"/><path class="cls-1" d="M862.89,426c-78.06,0-141.56-63.51-141.56-141.57s63.5-141.56,141.56-141.56,141.57,63.51,141.57,141.56S941,426,862.89,426Zm0-233.24a91.68,91.68,0,1,0,91.68,91.67A91.78,91.78,0,0,0,862.89,192.74Z"/><path class="cls-1" d="M1799.06,315.73l8.42-6.5a89.86,89.86,0,0,0-54.9-161H1636.47V418h54.13V191.2h52.63a46.83,46.83,0,0,1,46.9,46.89,46.56,46.56,0,0,1-9.28,28A46.76,46.76,0,0,1,1743.23,285H1710.1l31,43,31.13,43.13L1806.11,418h66.76Z"/><polygon class="cls-1" points="629.46 417.98 629.46 310.16 500.13 310.16 500.13 417.98 446 417.98 446 148.23 500.13 148.23 500.13 256.03 629.46 256.03 629.46 148.23 683.59 148.23 683.59 417.98 629.46 417.98"/><path class="cls-2" d="M332.1,0V219.74H332L221.39,146.55l-55.34-36.62,55.34-36.65ZM.15,331h332V550.7L221.39,477.42l-55.34-36.65-55.34-36.63Z"/><polygon class="cls-3" points="332.1 219.74 331.95 219.74 221.39 146.55 166.05 109.93 221.39 73.28 332.1 219.74"/><path class="cls-4" d="M221.39,146.55l-55.34-36.62L110.71,73.28,0,0V219.74H332ZM0,550.7V331H.15l110.56,73.18,55.34,36.63-55.34,36.65Z"/><polygon class="cls-5" points="0 330.96 0.15 330.96 110.71 404.14 166.05 440.77 110.71 477.42 0 330.96"/></svg>